<svg viewBox="0 0 100 100" xmlns="http://www.w3.org/2000/svg"><symbol viewBox="0 0 32 32" id="icon-arrow-down"><title>arrow-down</title> <path d="M28,19.7l-1-1l-10.3,9.8V1h-1.4l0,27.5L5,18.7l-1,1c4,3.8,8,7.5,12,11.3C20,27.2,24,23.5,28,19.7z"/> </symbol><symbol viewBox="0 0 32 32" id="icon-arrow-left"><title>arrow-left</title> <path d="M1,16c3.8,4,7.5,8,11.3,12l1-1L3.5,16.7H31v-1.4H3.5L13.3,5l-1-1C8.5,8,4.8,12,1,16z"/> </symbol><symbol viewBox="0 0 32 32" id="icon-arrow-right"><title>arrow-right</title> <path d="M19.7,4l-1,1l9.8,10.3H1v1.4h27.5L18.7,27l1,1c3.8-4,7.5-8,11.3-12C27.2,12,23.5,8,19.7,4z"/> </symbol><symbol viewBox="0 0 32 32" id="icon-arrow-up"><title>arrow-up</title> <path d="M4,12.3l1,1l10.3-9.8V31h1.4V3.5L27,13.3l1-1C24,8.5,20,4.8,16,1C12,4.8,8,8.5,4,12.3z"/> </symbol><symbol viewBox="0 0 32 32" id="icon-caret-down"><title>caret-down</title> <polygon points="31,10 28.5,7.7 16,19.7 3.5,7.7 1,10 16,24.3 "/> </symbol><symbol viewBox="0 0 32 32" id="icon-caret-left"><title>caret-left</title> <polygon points="22,31 24.3,28.5 12.3,16 24.3,3.5 22,1 7.7,16 "/> </symbol><symbol viewBox="0 0 32 32" id="icon-caret-right"><title>caret-right</title> <polygon points="10,1 7.7,3.5 19.7,16 7.7,28.5 10,31 24.3,16 "/> </symbol><symbol viewBox="0 0 32 32" id="icon-caret-up"><title>caret-up</title> <polygon points="1,22 3.5,24.3 16,12.3 28.5,24.3 31,22 16,7.7 "/> </symbol><symbol viewBox="0 0 32 32" id="icon-cross"><title>cross</title> <path d="M16,14.4L29.4,1L31,2.6L17.6,16L31,29.4L29.4,31L16,17.6L2.6,31L1,29.4L14.4,16L1,2.6L2.6,1 L16,14.4z M29.4,2.3L29.4,2.3z"/> </symbol></svg>